<svg xmlns="http://www.w3.org/2000/svg" width="155" height="59" viewBox="-232.5 367.5 155 59" enable-background="new -232.5 367.5 155 59"><path fill="#fff" d="M-80 411.6l-1.1-4.9c0-.2-.2-.4-.4-.5-.2-.1-.4-.1-.6 0-.4.2-.8.3-1.3.4s-.9.2-1.4.2c-1.4 0-3.2-.4-3.2-4.2v-12.8h6.5c.4 0 .7-.3.7-.7v-5.2c0-.4-.3-.7-.7-.7H-88v-7c0-.4-.3-.7-.7-.7h-6.7c-.4 0-.7.3-.7.6v26.4c0 1.6.2 3 .5 4.3.3 1.3.9 2.5 1.7 3.5s1.8 1.8 3 2.3 2.7.8 4.4.8c1.1 0 2.2-.1 3.3-.3 1-.2 1.9-.5 2.7-.7.4-.1.6-.4.5-.8zm-120.5-28.5h-6.1c-.3 0-.6.2-.7.6L-213 412c0 .2 0 .4.1.6.1.2.3.3.5.3h6.2c.3 0 .6-.2.7-.6l5.6-28.3c0-.2 0-.4-.1-.6-.1-.3-.3-.3-.5-.3zm20.8.8c0-.2 0-.4-.1-.6-.1-.2-.3-.3-.5-.3h-5.9l1.3-6.8c0-.2 0-.4-.1-.6-.1-.2-.3-.3-.5-.3h-5.7c-.5.1-.8.4-.8.7l-5.8 26.4s0 0 0 .1c-.1.6-.2 1.1-.2 1.7-.1.6-.1 1.2-.1 1.8 0 2.1.6 3.9 1.9 5.4s3.3 2.2 6.2 2.2c1.3 0 2.6-.1 3.6-.4 1-.3 1.9-.6 2.6-.9.3-.1.5-.5.4-.8l-1.3-4.5c-.1-.2-.2-.4-.4-.5-.2-.1-.4-.1-.6 0-.4.2-.8.4-1.2.5-.3.1-.7.2-1.1.2-1 0-1.7-.2-2-.6-.4-.4-.5-1-.5-1.8 0-.6.1-1.3.2-1.9l2.7-13.5h6.3c.3 0 .6-.2.7-.6 0 0 .9-4.9.9-4.9zm-24-12.6c-1.9-.9-3.5-1.3-5.9-1.3-3.7-.1-6.6.9-8.9 2.8-2.1 1.9-3.8 5.6-4.7 10.3h-3.1c-.3 0-.6.2-.7.6l-1 4.9c0 .2 0 .4.1.6.1.2.3.3.5.3h2.7L-229 412c0 .2 0 .4.1.6.1.2.3.3.5.3h6.1c.3 0 .6-.2.7-.6l.6-2.4c0-.1.1-.1.1-.2l4-20.3h4.7c.3 0 .6-.2.7-.6l1-4.9c0-.2 0-.4-.1-.6-.1-.2-.3-.3-.5-.3h-4.5c.3-1.4 1.1-4.3 2.6-5.3 0 0 0 0 .1 0 .6-.5 2.1-.9 3.6-.9 1.1 0 2.5.3 3.7.8 1 .5 2.1.9 3.2 1.7.3.2.7.2 1-.1l2.7-3.6c.2-.3.2-.7-.1-.9-1.6-1.5-3.2-2.5-4.9-3.4zm42.9 26.4c-.8-.7-1.8-1.3-2.8-1.7-1-.5-2-.9-2.9-1.2-.7-.3-1.5-.5-2.2-.8-.7-.3-1.2-.5-1.7-.8-.5-.3-.8-.6-1.1-.9-.2-.3-.3-.6-.3-1 0-.7.2-1.2.8-1.7.5-.5 1.4-.7 2.7-.7 1 0 2 .2 2.9.6 1 .4 1.9 1 2.9 1.7.3.2.7.2 1-.1l3-4c.2-.3.2-.8-.1-1-1.2-.9-2.6-1.7-4.2-2.5-1.6-.7-3.5-1.1-5.5-1.1-3.3 0-6 .9-8 2.5-2 1.7-3 4-3 6.7 0 1.3.3 2.5.8 3.4s1.2 1.8 2 2.5 1.7 1.3 2.7 1.8 1.9.9 2.8 1.2c.7.3 1.4.6 2.2.9.7.3 1.3.6 1.8.9.5.3.9.6 1.2 1 .2.3.4.7.4 1.1 0 .8-.3 1.4-.8 1.9-.6.5-1.6.8-2.9.8-1.3 0-2.6-.3-3.7-.8-1.2-.5-2.4-1.3-3.6-2.2-.2-.1-.3-.2-.5-.1-.2 0-.4.1-.5.3l-3.1 4.3c-.2.3-.2.7.1 1 1.4 1.2 3.1 2.1 5.1 2.9 2 .8 4 1.2 6 1.2 1.8 0 3.5-.2 4.9-.7 1.5-.5 2.7-1.2 3.7-2 1-.9 1.8-1.9 2.3-3s.8-2.4.8-3.7c0-1.4-.3-2.7-.8-3.7-.8-1.4-1.5-2.3-2.4-3zm29.8-11.1c-1-1.4-2.3-2.4-3.7-3.1-1.4-.7-3.1-1.1-5-1.1-1.7 0-3.3.4-4.8 1.2-1.2.6-2.3 1.3-3.3 2.1l-.3-2c-.1-.3-.3-.6-.7-.6h-5.4c-.4 0-.7.3-.7.7v39.5c0 .4.3.7.7.7h6.6c.4 0 .7-.3.7-.7v-8.9l-.1-3.2c.8.6 1.7 1.1 2.5 1.4 1.3.6 2.6.9 3.9.9 1.7 0 3.3-.4 4.8-1.1 1.5-.7 2.9-1.8 4.1-3.2 1.2-1.3 2.1-3 2.8-5 .7-2 1-4.2 1-6.7 0-2.2-.3-4.3-.8-6.1-.6-1.9-1.3-3.5-2.3-4.8zm-6.9 17.8c-1.1 1.5-2.5 2.2-4.1 2.2-.8 0-1.6-.2-2.5-.5-.8-.3-1.6-.8-2.5-1.5V392c1.9-1.8 3.8-2.8 5.5-2.8 1.9 0 3.2.7 4 2 .9 1.5 1.3 3.6 1.3 6.3 0 3.1-.6 5.4-1.7 6.9zm35.7-17.9c-1.3-1.3-2.8-2.4-4.5-3.1-1.7-.7-3.5-1.1-5.3-1.1s-3.6.4-5.3 1.1c-1.7.7-3.2 1.7-4.5 3.1-1.3 1.3-2.3 3-3.1 4.9-.8 1.9-1.1 4.1-1.1 6.6 0 2.4.4 4.6 1.1 6.6.8 1.9 1.8 3.6 3.1 4.9 1.3 1.3 2.8 2.4 4.5 3 .3.1.7.3 1 .4.2.1.5.2.6.5l3.3 5.3c.1.1.2.2.4.2.1 0 .3-.1.4-.2l3.3-5.3c.1-.2.3-.4.6-.5.4-.1.7-.2 1.1-.4 1.7-.7 3.2-1.7 4.5-3.1 1.3-1.3 2.3-3 3.1-4.9s1.2-4.1 1.2-6.6c0-2.4-.4-4.6-1.2-6.6-.9-1.8-2-3.5-3.2-4.8zm-3.7 18.8c-1.5 1.7-3.5 2.6-6.2 2.6-2.6 0-4.6-.8-6.1-2.6s-2.3-4.3-2.3-7.3c0-3.1.8-5.6 2.3-7.4 1.5-1.7 3.5-2.6 6.1-2.6s4.6.8 6.2 2.6c1.6 1.8 2.4 4.3 2.4 7.4-.1 3-.9 5.5-2.4 7.3z"/></svg>